<svg version="1.1" xmlns="http://www.w3.org/2000/svg" xmlns:xlink="http://www.w3.org/1999/xlink" width="48" height="48"><defs><linearGradient x1="10.30566" y1="14.37721" x2="40.49876" y2="38.76867" gradientUnits="userSpaceOnUse" id="color-1"><stop offset="0.51" stop-color="#000000" stop-opacity="0.23"></stop><stop offset="1" stop-color="#000000" stop-opacity="0"></stop></linearGradient><filter id="dropshadow-base"><feColorMatrix type="matrix" values="0 0 0 0 0  0 0 0 0 0  0 0 0 0 0  0 0 0 .8 0"></feColorMatrix> <feOffset dx="0" dy="1"></feOffset> <feGaussianBlur stdDeviation="1"></feGaussianBlur> <feComposite in="SourceGraphic"></feComposite></filter><filter id="dropshadow-banner" x="-10%" y="-10%" width="120%" height="130%"><feColorMatrix type="matrix" values="0 0 0 0 0  0 0 0 0 0  0 0 0 0 0  0 0 0 .4 0"></feColorMatrix> <feOffset dx="0" dy="1"></feOffset> <feGaussianBlur stdDeviation="0.5"></feGaussianBlur> <feComposite in="SourceGraphic"></feComposite></filter></defs><g fill="none" fill-rule="nonzero" stroke="none" stroke-width="none" stroke-linecap="butt" stroke-linejoin="miter" stroke-miterlimit="10" stroke-dasharray="" stroke-dashoffset="0" font-family="none" font-weight="none" font-size="none" text-anchor="none" style="mix-blend-mode: normal"><path d="M2,24c0,-12.15026 9.84974,-22 22,-22c12.15026,0 22,9.84974 22,22c0,12.15026 -9.84974,22 -22,22c-12.15026,0 -22,-9.84974 -22,-22z" id="base 1 5" fill="#7e57c2" stroke-width="1"></path><path d="M26.26016,30.06622h-1.71591v3.16632h1.71591zM40.49876,30.06622v8.48722c-0.06371,0.07217 -0.12788,0.14392 -0.19252,0.21524h-7.05953l-1.45042,-1.45042v1.45042h-7.25204l-1.45041,-1.45041v1.45041h-7.25204l-5.53613,-5.53613v-18.85533h7.25204l1.45041,1.45041v-1.45041h15.95451l5.53613,5.53613v8.70245h-1.45042zM34.96263,23.07967v-3.16632h-10.41838v3.16632zM34.96263,30.06622l-1.71591,0v3.16632h1.71591zM17.55771,19.91335h-1.71591v13.31919h1.71591z" fill="url(#color-1)" stroke-width="1"></path><path d="M19.00812,33.23254h7.25205v-8.70246h-7.25205zM10.30566,33.23254h7.25205v-18.85532h-7.25205zM27.71058,33.23254h7.25205v-8.70246h-7.25205zM19.00812,14.37722v8.70246h15.95451v-8.70246z" fill="none" stroke-width="0"></path><path d="M19.00812,24.53008h7.25205v8.70246h-7.25205zM10.30566,14.37722h7.25205v18.85532h-7.25205zM27.71058,24.53008h7.25205v8.70246h-7.25205zM34.96263,14.37722v8.70246h-15.95451v-8.70246z" fill="#ffffff" stroke-width="0"></path><path d="M2,24c0,-12.15026 9.84974,-22 22,-22c12.15026,0 22,9.84974 22,22c0,12.15026 -9.84974,22 -22,22c-12.15026,0 -22,-9.84974 -22,-22z" id="base 1 1 1" fill="none" stroke-width="1"></path><g fill="#000000" stroke-width="1" font-family="Roboto,sans-serif" font-weight="400" font-size="14" text-anchor="start"></g><rect x="2" y="2" width="44" height="22" fill="none" stroke-width="1"></rect><path d="M2,24v-22h44v22z" fill="none" stroke-width="1"></path><path d="M2,24v-22h44v22z" fill="none" stroke-width="1"></path><path d="M2,24v-22h44v22z" fill="none" stroke-width="1"></path><path d="M2,24v-22h44v22z" fill="none" stroke-width="1"></path></g></svg>